<?xml version="1.0" encoding="utf-8"?>
<!-- Generator: Adobe Illustrator 21.1.0, SVG Export Plug-In . SVG Version: 6.00 Build 0)  -->
<svg version="1.1" id="Capa_1" xmlns="http://www.w3.org/2000/svg" xmlns:xlink="http://www.w3.org/1999/xlink" x="0px" y="0px"
	 viewBox="0 0 900 168" style="enable-background:new 0 0 900 168;" xml:space="preserve">
<g transform="translate(0.000000,168.000000) scale(0.100000,-0.100000)">
	<path d="M779.1,1342.8c-170.5-36.7-315.8-173.4-378.4-356.1c-13.7-39.6-13.7-241,0-280.6c56.1-162.6,168.3-281.3,323-340.3
		c44.6-17.3,56.8-18.7,166.9-18.7s122.3,1.4,166.9,18.7c154.7,59,266.9,177.7,323,340.3c13.7,39.6,13.7,241,0,280.6
		c-56.1,162.6-170.5,283.4-323,340.3c-41,15.1-62.6,18-148.9,20.1C853.2,1348.5,795,1346.4,779.1,1342.8z M957.6,1275.1
		c159.7-25.9,295.7-139.6,343.9-285.6c31.7-97.1,31.7-189.2,0-286.3c-33.8-102.9-114.4-194.2-216.5-244.6
		c-33.8-16.5-70.5-30.9-82.7-32.4c-11.5-2.2-37.4-7.2-57.6-11.5c-74.8-17.3-198.6,8.6-282,59C615.8,502.5,541,578,513.7,625.5
		c-41,69.1-56.8,130.9-56.8,217.3c-0.7,128.8,36,218,127.3,310.1c63.3,63.3,147.5,107.2,233.1,121.6
		C889.9,1286.7,884.9,1286.7,957.6,1275.1z"/>
	<path d="M1018.7,1114.7c-18.7-21.6-21.6-43.2-9.4-66.2c19.4-38.8,74.1-38.8,93.5,0c20.1,38.8-3.6,78.4-46.8,78.4
		C1039.6,1126.9,1025.2,1121.9,1018.7,1114.7z"/>
	<path d="M673.4,957.2c-36-19.4-41.7-41.7-41.7-159.7c0-100,1.4-108.6,16.5-131.7c10.8-16.5,26.6-27.3,46.8-33.8
		c28.8-9.4,30.2-11.5,30.2-37.4c0-15.8,3.6-30.2,7.2-32.4c4.3-2.2,20.9,10.1,37.4,28.1l29.5,33.1l133.8,0.7
		c151.8,0,175.5,5,200.7,42.4c15.8,24.5,16.5,29.5,14.4,145.3c-2.2,115.1-2.9,120.1-19.4,138.1c-28.1,30.2-94.2,25.2-94.2-6.5
		c0-19.4,11.5-30.2,36-33.8l18-2.2l2.2-100c1.4-66.9-0.7-102.9-6.5-109.4c-11.5-13.7-372.7-15.1-386.3-1.4
		c-12.2,12.2-12.2,185.6,0.7,202.2c7.2,10.1,24.5,12.2,94.2,13.7c71.9,2.2,87,4.3,93.5,15.1c5.8,8.6,5.8,15.8,0,25.2
		c-7.2,10.1-21.6,12.2-100.7,13.7C714.4,968,688.5,965.8,673.4,957.2z"/>
	<path d="M870.5,875.1c-23-9.4-37.4-47.5-28.8-72.7s19.4-33.8,47.5-39.6c18.7-3.6,25.9-0.7,44.6,17.3c25.9,25.9,28.1,51.1,5.8,76.3
		C920.1,877.3,894.2,884.5,870.5,875.1z"/>
	<path d="M2148.5,1137.6c-39-17-82-61-108-111c-29-56-36-209-13-289c22-75,82-138,148-154c139-35,247,13,298,131c18,41,23,71,23,142
		c0,106-12,157-52,212c-42,58-100,83-192,83C2211.5,1150.6,2165.5,1144.6,2148.5,1137.6z M2304.5,1064.6c79-47,110-225,58-328
		c-57-114-156-118-213-9c-29,54-35,188-11,249c20,53,76,105,111,105C2263.5,1081.6,2288.5,1073.6,2304.5,1064.6z"/>
	<path d="M6674.5,1129.6c-90-44-127-137-119-299c5-107,24-156,81-206c62-54,195-67,302-30l40,14l3,126l3,127h-111h-110v-35v-35h60
		h60v-64c0-58-2-65-22-72c-73-23-141,6-174,73c-26,54-31,191-9,248c22,58,75,105,119,105c36,0,86-32,86-56c0-10,13-14,50-14
		c48,0,50,1,50,28c0,68-73,111-190,112C6736.5,1151.6,6708.5,1146.6,6674.5,1129.6z"/>
	<path d="M7536.5,1126.6c-89-45-123-118-123-267c0-187,86-288,245-288c101,0,185,55,185,120c0,29-1,30-49,30c-44,0-49-2-55-26
		c-9-34-62-57-106-44c-45,13-60,28-86,85c-27,56-32,160-13,228c25,93,122,144,182,97c15-12,27-28,27-36c0-10,13-14,50-14
		c45,0,50,2,50,23c0,35-38,87-75,103c-19,8-66,14-108,14C7602.5,1151.6,7577.5,1146.6,7536.5,1126.6z"/>
	<path d="M8008.5,1137.6c-39-17-82-61-108-111c-29-56-36-209-13-289c22-75,82-138,148-154c139-35,247,13,298,131c18,41,23,71,23,142
		c0,106-12,157-52,212c-42,58-100,83-192,83C8071.5,1150.6,8025.5,1144.6,8008.5,1137.6z M8164.5,1064.6c79-47,110-225,58-328
		c-57-114-156-118-213-9c-29,54-35,188-11,249c20,53,76,105,111,105C8123.5,1081.6,8148.5,1073.6,8164.5,1064.6z"/>
	<path d="M1853.5,906.6v-226l-25-25c-20-20-29-23-45-14c-11,6-24,19-30,30c-8,16-21,20-60,20c-45,0-50-2-50-22c0-13,9-37,20-55
		c24-40,81-57,164-50c48,4,64,11,89,35c40,41,46,81,47,325v207h-55h-55V906.6z"/>
	<path d="M2553.5,856.6v-275h50h50l2,172l3,172l110-172l110-172h53h52v275v275h-50h-50v-177v-177l-112,177l-113,176h-52l-53,1V856.6
		z"/>
	<path d="M3110.5,872.6c-59-143-107-267-107-275c0-12,11-16,49-16h48l29,75l29,75h102c97,0,102-1,109-22c3-13,15-47,26-75l19-53h55
		c36,0,54,4,54,13c0,6-44,129-99,272l-98,260l-55,3l-55,3L3110.5,872.6z"/>
	<path d="M3523.5,1096.6v-35h90h90v-240v-240h50h50v240v240h90h90v35v35h-230h-230V1096.6z"/>
	<path d="M4013.5,856.6v-275h50h50v120v120h105h105v-120v-120h50h50v275v275h-50h-50v-120v-120h-105h-105v120v120h-50h-50V856.6z"/>
	<path d="M4560.5,872.6c-59-143-107-267-107-275c0-12,11-16,49-16h48l29,75l29,75h102c97,0,102-1,109-22c3-13,15-47,26-75l19-53h55
		c36,0,54,4,54,13c0,6-44,129-99,272l-98,260l-55,3l-55,3L4560.5,872.6z"/>
	<path d="M5003.5,856.6v-275h50h50l2,172l3,172l110-172l110-172h53h52v275v275h-50h-50v-177v-177l-112,177l-113,176h-52l-53,1V856.6
		z"/>
	<path d="M5503.5,857.6v-276h45h45v153l1,152l47-110l48-110l54-3l55-3l47,118l47,118v-157l1-158h45h45v276v275l-51-3l-51-3l-66-164
		c-51-129-67-161-74-145c-5,10-37,84-71,164l-63,145l-52,3l-52,3V857.6z"/>
	<path d="M6130.5,872.6c-59-143-107-267-107-275c0-12,11-16,49-16h48l29,75l29,75h102c97,0,102-1,109-22c3-13,15-47,26-75l19-53h55
		c36,0,54,4,54,13c0,6-44,129-99,272l-98,260l-55,3l-55,3L6130.5,872.6z"/>
	<path d="M7043.5,856.6v-275h50h50v275v275h-50h-50V856.6z"/>
	<path d="M8413.5,857.6v-276h45h45v153l1,152l47-110l48-110l54-3l55-3l47,118l47,118v-157l1-158h45h45v276v275l-51-3l-51-3l-66-164
		c-51-129-67-161-74-145c-5,10-37,84-71,164l-63,145l-52,3l-52,3V857.6z"/>
</g>
</svg>
